<?xml version="1.0" encoding="UTF-8"?>
<svg id="Layer_1" xmlns="http://www.w3.org/2000/svg" version="1.1" viewBox="0 0 200 200">
  <!-- Generator: Adobe Illustrator 30.2.1, SVG Export Plug-In . SVG Version: 2.1.1 Build 1)  -->
  <defs>
    <style>
      .st0 {
        fill: #088783;
      }

      .st1 {
        fill: #333;
      }
    </style>
  </defs>
  <path class="st0" d="M95.08,86.05c-3.5,2.68-8.51,2.01-11.19-1.49-2.68-3.5-2.01-8.51,1.49-11.19,3.5-2.68,8.51-2.01,11.19,1.49,2.68,3.5,2.01,8.51-1.49,11.19h0ZM177.63,123.23c-4.93-3.85-11.14-4.92-16.77-3.49-23.71-70.16-87.87-57.59-91.79-56.75l-.1-.08s0,.04,0,.1c-.06.01-.1.02-.1.02l.1.08c.14,4.01,3.55,69.25,77.3,75.21-.06,5.85,2.49,11.67,7.46,15.54,3.98,3.1,8.77,4.39,13.43,4.03-.89-5.2.31-10.74,3.81-15.23,3.5-4.49,8.58-7,13.84-7.4-.79-4.61-3.21-8.95-7.18-12.04"/>
  <path class="st1" d="M94.32,79.88s.71-2.21-1.02-4.7c-.23-.33-.5-.63-.5-.63-.01-.01-.02-.02-.03-.04-.76-.93-1.55-1.86-2.34-2.77-1.75-.04-3.53.49-5.04,1.63-.2.15-.39.32-.57.49.97,1.07,1.92,2.15,2.84,3.27-1.23-.81-2.5-1.53-3.82-2.17-4.18-2.04-8.8-3.22-13.92-3.54-4.14-.26-8.59.04-13.4.89-1.76.31-3.52.64-5.27.97-3.95.74-8.04,1.51-12.05,2.05-3.32.45-8.06.37-12.55-2.42-1.39-.87-4.71-2.93-6.05-7.12-1.48-4.64.5-8.68,1.18-9.9,2.18-3.93,5.75-5.49,7.84-6.41,5.56-2.43,10.68-1.73,14.25-1.24,6.2.85,10.95,3.21,15.03,5.24.72.36,2.71,1.31,5.13,2.84,2.96,1.88,5.8,3.91,8.55,6.08,1.96-.28,4.64-.57,7.86-.71-1.52-1.35-3.07-2.67-4.68-3.95-10.76-8.61-21.59-13.35-33.11-14.5-7.53-.75-13.58.37-18.78,3.47-5.65,3.37-9,9.24-8.96,15.7.04,6.36,3.38,12.09,8.95,15.31,5.25,3.04,11.29,4.03,17.94,2.93,2.54-.42,5.1-.91,7.57-1.38,3.85-.73,7.84-1.49,11.76-1.99,3.57-.45,6.87-.52,9.94-.22,4.16.4,7.89,1.49,11.23,3.29,1.17.63,2.31,1.34,3.39,2.14h.02c.44.28,2.48,1.56,4.73.91.96-.28,1.66-.82,1.97-1.07.58-.46,1.52-1.2,1.93-2.46Z"/>
</svg>