<?xml version="1.0" encoding="UTF-8"?>
<svg id="Layer_1" xmlns="http://www.w3.org/2000/svg" version="1.1" viewBox="0 0 200 200">
  <!-- Generator: Adobe Illustrator 30.2.1, SVG Export Plug-In . SVG Version: 2.1.1 Build 1)  -->
  <defs>
    <style>
      .st0 {
        fill: #088783;
      }

      .st1 {
        fill: #333;
      }
    </style>
  </defs>
  <path class="st0" d="M94.19,82.99c-4.06,3.1-9.87,2.33-12.98-1.73-3.11-4.06-2.33-9.87,1.73-12.98,4.06-3.1,9.87-2.33,12.98,1.73,3.11,4.06,2.33,9.87-1.73,12.98h0ZM189.96,126.13c-5.72-4.47-12.92-5.71-19.45-4.05-27.51-81.4-101.95-66.81-106.5-65.83l-.12-.09s0,.05,0,.12c-.07.01-.11.03-.11.03l.12.09c.16,4.65,4.12,80.34,89.68,87.26-.07,6.79,2.89,13.53,8.65,18.03,4.61,3.6,10.18,5.09,15.58,4.68-1.03-6.03.36-12.46,4.42-17.66,4.06-5.21,9.96-8.12,16.06-8.59-.92-5.34-3.72-10.38-8.33-13.97"/>
  <path class="st1" d="M93.31,75.83s.83-2.57-1.19-5.46c-.27-.38-.58-.74-.58-.74-.01-.02-.02-.03-.04-.04-.89-1.08-1.79-2.15-2.72-3.21-2.03-.05-4.1.56-5.84,1.9-.23.18-.46.37-.67.57,1.12,1.24,2.22,2.5,3.3,3.79-1.43-.94-2.9-1.78-4.43-2.52-4.85-2.37-10.22-3.74-16.16-4.11-4.8-.3-9.97.05-15.55,1.04-2.04.36-4.08.74-6.12,1.12-4.58.86-9.32,1.75-13.99,2.38-3.85.52-9.35.43-14.56-2.81-1.62-1.01-5.47-3.4-7.01-8.26-1.72-5.39.58-10.07,1.37-11.48,2.53-4.56,6.67-6.37,9.1-7.43,6.46-2.82,12.39-2.01,16.53-1.44,7.2.99,12.71,3.73,17.44,6.08.83.41,3.14,1.51,5.95,3.3,3.43,2.18,6.73,4.54,9.92,7.06,2.28-.32,5.38-.66,9.11-.82-1.76-1.56-3.57-3.1-5.42-4.59-12.48-9.98-25.04-15.49-38.42-16.82-8.73-.87-15.76.43-21.78,4.03-6.55,3.91-10.44,10.72-10.39,18.22.04,7.38,3.93,14.02,10.38,17.77,6.09,3.53,13.09,4.67,20.82,3.4,2.94-.48,5.92-1.05,8.78-1.6,4.47-.85,9.1-1.73,13.64-2.31,4.14-.52,7.97-.6,11.53-.25,4.83.47,9.15,1.73,13.03,3.81,1.36.73,2.68,1.56,3.93,2.49h.02c.51.32,2.88,1.8,5.48,1.05,1.11-.32,1.92-.95,2.29-1.24.67-.53,1.76-1.39,2.24-2.86Z"/>
</svg>